:SAMPLES-PER-SECOND 30
:FULLY-SPECIFIED
:DEGREES
244
root  13.73275547 39.24289013 -3.114333303 8.989990234 -78.76399994 -6.523010254
lowerback  15.95960045 3.819339991 -1.41565001
upperback  6.34221983 4.382019997 -2.534149885
thorax  -2.087559938 2.048609972 -2.615959883
lowerneck  3.008840084 5.672389984 -4.909259796
upperneck  9.671230316 7.170740128 2.82942009
head  2.260999918 3.392699957 1.789680004
lclavicle  0 -9.442270133e-015 7.951389973e-016
lhumerus  22.73730087 -6.46600008 74.42060089
lradius  2.16906932e-031 -2.786392349e-031 127.8990021
lwrist  -7.062250077e-031 1.765562519e-031 12.10919952
lhand  -1.496451383e-031 -27.76390076 20.11240005
lfingers  90 7.125020027 -90
lthumb  89.89689403 5.08795885 91.16245106
rclavicle  0 -9.442270133e-015 7.951389973e-016
rhumerus  32.35210037 19.73749924 -81.86060333
rradius  -1.88514548e-031 2.985811541e-031 122.2669983
rwrist  0 -1.765562519e-031 -5.088809967
rhand  -7.920061211e-032 -33.2840004 9.303460121
rfingers  -90 -7.125020027 -90
rthumb  -92.93752616 -24.25625642 -97.11982154
rfemur  -32.52199936 10.24730015 14.20219994
rtibia  -0 0 66.80210114
rfoot  -0 -14.38850021 -7.224150181
rtoes  5.373923086 19.29304026 -105.8922705
lfemur  -32.88589859 8.364800453 -12.59869957
ltibia  -0 0 64.37180328
lfoot  4.520706773e-032 -12.47900009 2.384670019
ltoes  -4.250644065 -19.5611806 -102.515957
245
root  13.77288939 39.14088752 -3.127000088 7.838012695 -78.72470093 -5.372009277
lowerback  15.6782999 3.799040079 -1.306529999
upperback  6.300189972 4.388269901 -2.544569969
thorax  -1.974410057 2.057569981 -2.671190023
lowerneck  3.266949892 5.716360092 -5.033629894
upperneck  9.592160225 7.21036005 2.865430117
head  2.182590008 3.408309937 1.809769988
lclavicle  0 -9.442270133e-015 7.951389973e-016
lhumerus  22.70219994 -6.676799774 74.72979736
lradius  2.166052685e-031 -2.78873803e-031 127.836998
lwrist  -7.062250077e-031 -0 11.3355999
lhand  -1.496451383e-031 -27.76390076 20.11240005
lfingers  90 7.125020027 -90
lthumb  89.89689403 5.08795885 91.16245106
rclavicle  0 -9.442270133e-015 7.951389973e-016
rhumerus  32.76229858 19.65819931 -81.61620331
rradius  -1.875808159e-031 2.991686445e-031 122.0879974
rwrist  1.412450015e-030 -0 -5.043069839
rhand  -7.920061211e-032 -33.2840004 9.303460121
rfingers  -90 -7.125020027 -90
rthumb  -92.93752616 -24.25625642 -97.11982154
rfemur  -30.66909981 9.423270226 14.82919979
rtibia  -0 0 67.63819885
rfoot  -0 -15.0067997 -7.146550179
rtoes  5.373923086 19.29304026 -105.8922705
lfemur  -33.67570114 9.175760269 -13.96759987
ltibia  -0 0 63.99860001
lfoot  4.552327499e-032 -14.16539955 6.153880119
ltoes  -4.250644065 -19.5611806 -102.515957
246
root  13.79406696 39.07133388 -3.134488872 6.492004395 -78.75980377 -4.098022461
lowerback  15.34210014 3.75364995 -1.29113996
upperback  6.260620117 4.352019787 -2.507070065
thorax  -1.841969967 2.043839931 -2.61300993
lowerneck  3.392819881 5.808479786 -5.15252018
upperneck  9.733130455 7.320940018 2.835050106
head  2.199850082 3.453700066 1.818940043
lclavicle  0 -9.442270133e-015 7.951389973e-016
lhumerus  22.4090004 -6.488110065 75.24009705
lradius  2.16093863e-031 -2.792702683e-031 127.7320023
lwrist  -1.412450015e-030 1.765562519e-031 11.5717001
lhand  -1.496451383e-031 -27.76390076 20.11240005
lfingers  90 7.125020027 -90
lthumb  89.89689403 5.08795885 91.16245106
rclavicle  0 -9.442270133e-015 7.951389973e-016
rhumerus  33.1108017 19.94630051 -81.28340149
rradius  -1.865667746e-031 2.998020663e-031 121.8939972
rwrist  0 -0 -5.298749924
rhand  -7.920061211e-032 -33.2840004 9.303460121
rfingers  -90 -7.125020027 -90
rthumb  -92.93752616 -24.25625642 -97.11982154
rfemur  -28.48900032 8.858590126 15.25129986
rtibia  -0 0 67.73220062
rfoot  -9.194202345e-032 -16.22949982 -6.847249985
rtoes  5.373923086 19.29304026 -105.8922705
lfemur  -34.23450089 10.09599972 -15.34249973
ltibia  -0 0 63.95610046
lfoot  -0 -16.12820053 9.572360039
ltoes  -4.250644065 -19.5611806 -102.515957
247
root  13.80691078 38.99466747 -3.134866587 5.82598877 -78.81659698 -3.445983887
lowerback  14.85309982 3.683739901 -1.199530005
upperback  6.218490124 4.303870201 -2.411609888
thorax  -1.630399942 2.026400089 -2.525099993
lowerneck  3.528389931 5.89440012 -5.401669979
upperneck  9.863960266 7.417640209 2.847840071
head  2.206729889 3.488559961 1.863350034
lclavicle  0 -9.442270133e-015 7.951389973e-016
lhumerus  21.94309998 -6.407989979 75.6595993
lradius  2.160109634e-031 -2.793343947e-031 127.7149963
lwrist  -7.062250077e-031 -0 11.23999977
lhand  -1.496451383e-031 -27.76390076 20.11240005
lfingers  90 7.125020027 -90
lthumb  89.89689403 5.08795885 91.16245106
rclavicle  0 -9.442270133e-015 7.951389973e-016
rhumerus  33.46519852 20.33049965 -80.9095993
rradius  -1.859437239e-031 3.001888937e-031 121.7750015
rwrist  7.062250077e-031 -1.765562519e-031 -5.758490086
rhand  -7.920061211e-032 -33.2840004 9.303460121
rfingers  -90 -7.125020027 -90
rthumb  -92.93752616 -24.25625642 -97.11982154
rfemur  -26.23320007 8.292380333 15.71430016
rtibia  -0 0 67.10600281
rfoot  -0 -18.57659912 -7.690899849
rtoes  5.373923086 19.29304026 -105.8922705
lfemur  -34.73839951 11.16660023 -16.52610016
ltibia  -0 0 64.1977005
lfoot  -0 -17.28980064 12.19960022
ltoes  -4.250644065 -19.5611806 -102.515957
248
root  13.81322155 38.92399946 -3.132777702 5.619018555 -78.86869812 -3.273986816
lowerback  14.44909954 3.699589968 -1.102810025
upperback  6.131229877 4.36826992 -2.234509945
thorax  -1.513200045 2.064130068 -2.380439997
lowerneck  3.722039938 5.92993021 -5.76597023
upperneck  9.970319748 7.43088007 3.017590046
head  2.189199924 3.481820107 1.975450039
lclavicle  0 -9.442270133e-015 7.951389973e-016
lhumerus  21.44599915 -6.541800022 76.13749695
lradius  2.160451074e-031 -2.793079876e-031 127.7220001
lwrist  -7.062250077e-031 1.765562519e-031 10.96479988
lhand  -1.496451383e-031 -27.76390076 20.11240005
lfingers  90 7.125020027 -90
lthumb  89.89689403 5.08795885 91.16245106
rclavicle  0 -9.442270133e-015 7.951389973e-016
rhumerus  33.65230179 20.48310089 -80.51450348
rradius  -1.855768369e-031 3.004158417e-031 121.7050018
rwrist  7.062250077e-031 -1.765562519e-031 -5.996389866
rhand  -7.920061211e-032 -33.2840004 9.303460121
rfingers  -90 -7.125020027 -90
rthumb  -92.93752616 -24.25625642 -97.11982154
rfemur  -23.87800026 7.687890053 16.21529961
rtibia  -0 0 65.83650208
rfoot  -0 -21.39760017 -9.278530121
rtoes  5.373923086 19.29304026 -105.8922705
lfemur  -34.99959946 12.00389957 -17.40819931
ltibia  -0 0 64.46420288
lfoot  -0 -17.71450043 14.49180031
ltoes  -4.250644065 -19.5611806 -102.515957
